<svg width="178" height="64" viewBox="0 0 178 64" fill="none" xmlns="http://www.w3.org/2000/svg">
<g clip-path="url(#clip_p)">
<path d="M25 0H21L9 64H13L25 0Z" fill="#6a1a9a"/>
<path d="M178 0H33.9996L22 64H166L178 0Z" fill="url(#p0_p)"/>
<path d="M176.25 1.5H33.24L21.6562 62.5H164.666L176.25 1.5Z" fill="url(#p1_p)"/>
<path opacity="0.35" d="M46.1141 4L54 4L40.8859 61H33L46.1141 4Z" fill="#6e2098"/>
<path d="M36.7301 4L42 4L30.2699 61H25L36.7301 4Z" fill="#6e2098"/>
<path opacity="0.35" d="M56.8737 4L72 4L59.1263 61H44L56.8737 4Z" fill="#6e2098"/>
<path opacity="0.35" d="M75.7813 4L110 4L97.2187 61H63L75.7813 4Z" fill="#6e2098"/>
<path d="M18 0H27L18 64H3.25L18 0Z" fill="#160630"/>
<path d="M12 0H21L9 64H0L12 0Z" fill="#b858ff"/>
<path d="M24.9997 0H33.9997L22 64H13L25 0Z" fill="#b858ff"/>
<path d="M25 0H33L21 64H13L25 0Z" fill="url(#p2_p)"/>
<path d="M25 0H33L21 64H13L25 0Z" fill="url(#p3_p)"/>
<path d="M12 0H20L8 64H0L12 0Z" fill="url(#p4_p)"/>
<path d="M12 0H20L8 64H0L12 0Z" fill="url(#p5_p)"/>
</g>
<defs>
<linearGradient id="p0_p" x1="187.49" y1="48.7288" x2="30.4973" y2="20.5012" gradientUnits="userSpaceOnUse">
<stop offset="0.9053" stop-color="#5a1a8a"/>
<stop offset="1" stop-color="#3e1068"/>
</linearGradient>
<linearGradient id="p1_p" x1="185.411" y1="47.9446" x2="26.5628" y2="33.7951" gradientUnits="userSpaceOnUse">
<stop offset="0.862691" stop-color="#2e0c50" stop-opacity="0.44"/>
<stop offset="1" stop-color="#1c0838"/>
</linearGradient>
<linearGradient id="p2_p" x1="23.4998" y1="1" x2="23.4998" y2="63" gradientUnits="userSpaceOnUse">
<stop stop-color="#b858ff"/>
<stop offset="1" stop-color="#aa4ef8"/>
</linearGradient>
<linearGradient id="p3_p" x1="23.4998" y1="1" x2="23.4998" y2="63" gradientUnits="userSpaceOnUse">
<stop stop-color="#b858ff"/>
<stop offset="1" stop-color="#aa4ef8"/>
</linearGradient>
<linearGradient id="p4_p" x1="10.4998" y1="1" x2="10.4998" y2="63" gradientUnits="userSpaceOnUse">
<stop stop-color="#b858ff"/>
<stop offset="1" stop-color="#aa4ef8"/>
</linearGradient>
<linearGradient id="p5_p" x1="10.4998" y1="1" x2="10.4998" y2="63" gradientUnits="userSpaceOnUse">
<stop stop-color="#b858ff"/>
<stop offset="1" stop-color="#aa4ef8"/>
</linearGradient>
<clipPath id="clip_p">
<rect width="178" height="64" fill="white"/>
</clipPath>
</defs>
</svg>
