<svg width="32" height="32" viewBox="0 0 32 32" fill="none" xmlns="http://www.w3.org/2000/svg">
<path d="M24.21 1.715H7.79001C6.62001 1.715 5.67001 2.715 5.67001 3.935V28.065C5.67001 29.295 6.62001 30.285 7.79001 30.285H24.21C25.38 30.285 26.33 29.285 26.33 28.065V3.935C26.33 2.705 25.38 1.715 24.21 1.715ZM15.76 5.765C15.05 5.765 14.47 5.165 14.47 4.415C14.47 3.665 15.05 3.065 15.76 3.065C16.47 3.065 17.05 3.665 17.05 4.415C17.05 5.165 16.47 5.765 15.76 5.765Z" fill="url(#paint0_linear_190_195)"/>
<path d="M24.14 1.785H7.88C6.72 1.785 5.78 2.775 5.78 3.995V27.965C5.78 29.185 6.72 30.175 7.88 30.175H24.14C25.3 30.175 26.24 29.185 26.24 27.965V3.995C26.24 2.775 25.3 1.785 24.14 1.785ZM15.78 5.805C15.08 5.805 14.5 5.205 14.5 4.465C14.5 3.725 15.07 3.125 15.78 3.125C16.49 3.125 17.06 3.725 17.06 4.465C17.06 5.205 16.49 5.805 15.78 5.805Z" fill="url(#paint1_linear_190_195)"/>
<path d="M5.75 28.105C5.75 29.265 6.66 30.205 7.78 30.205H24.18C25.3 30.205 26.21 29.265 26.21 28.105V17.715H5.75V28.105Z" fill="#F7941D"/>
<path d="M24.15 1.855H7.88C6.72 1.855 5.78 2.795 5.78 3.955V4.905H14.54C14.47 4.725 14.43 4.555 14.43 4.365C14.43 3.625 15.03 3.035 15.76 3.035C16.49 3.035 17.09 3.635 17.09 4.365C17.09 4.555 17.05 4.725 16.98 4.895H26.23V3.955C26.23 2.795 25.29 1.855 24.13 1.855H24.15Z" fill="#F7941D"/>
<path d="M22.04 5.385L21.76 5.945H21.68L21.94 5.425H21.59V5.365H22.04V5.385Z" fill="#444549"/>
<path d="M22.15 5.925V5.855C22.15 5.855 22.25 5.905 22.31 5.905C22.36 5.905 22.4 5.905 22.43 5.875C22.46 5.855 22.47 5.825 22.47 5.795C22.47 5.715 22.41 5.685 22.28 5.685H22.22V5.625H22.27C22.38 5.625 22.44 5.585 22.44 5.515C22.44 5.445 22.4 5.415 22.31 5.415C22.26 5.415 22.22 5.415 22.17 5.455V5.395C22.17 5.395 22.27 5.365 22.33 5.365C22.39 5.365 22.44 5.365 22.47 5.405C22.51 5.435 22.52 5.465 22.52 5.505C22.52 5.585 22.47 5.635 22.38 5.655C22.38 5.655 22.47 5.675 22.5 5.705C22.53 5.735 22.54 5.765 22.54 5.795C22.54 5.845 22.52 5.885 22.47 5.925C22.43 5.955 22.37 5.975 22.29 5.975C22.22 5.975 22.17 5.965 22.13 5.945L22.15 5.925Z" fill="#444549"/>
<path d="M22.7 5.925V5.855C22.7 5.855 22.8 5.895 22.85 5.895C22.9 5.895 22.94 5.885 22.97 5.865C23 5.845 23.01 5.815 23.01 5.775C23.01 5.735 23 5.705 22.96 5.685C22.93 5.665 22.89 5.655 22.83 5.655H22.72V5.365H23.06V5.425H22.8V5.595H22.86C22.93 5.595 22.99 5.615 23.03 5.645C23.07 5.675 23.09 5.715 23.09 5.775C23.09 5.835 23.07 5.875 23.02 5.915C22.98 5.945 22.92 5.965 22.84 5.965C22.78 5.965 22.73 5.965 22.7 5.945V5.925Z" fill="#444549"/>
<path d="M23.23 5.925V5.855C23.23 5.855 23.33 5.895 23.38 5.895C23.43 5.895 23.47 5.885 23.5 5.865C23.53 5.845 23.54 5.815 23.54 5.775C23.54 5.735 23.53 5.705 23.49 5.685C23.46 5.665 23.42 5.655 23.36 5.655H23.25V5.365H23.59V5.425H23.33V5.595H23.39C23.46 5.595 23.52 5.615 23.56 5.645C23.6 5.675 23.62 5.715 23.62 5.775C23.62 5.835 23.6 5.875 23.55 5.915C23.51 5.945 23.45 5.965 23.37 5.965C23.31 5.965 23.26 5.965 23.23 5.945V5.925Z" fill="#444549"/>
<path d="M24.14 5.365V5.425C24.14 5.425 24.07 5.405 24.03 5.405C23.97 5.405 23.92 5.425 23.88 5.475C23.84 5.525 23.82 5.585 23.82 5.655C23.82 5.655 23.9 5.575 23.98 5.575C24.04 5.575 24.09 5.595 24.12 5.625C24.15 5.655 24.17 5.705 24.17 5.755C24.17 5.805 24.15 5.855 24.11 5.895C24.07 5.935 24.02 5.945 23.95 5.945C23.88 5.945 23.83 5.925 23.79 5.875C23.75 5.825 23.73 5.765 23.73 5.675C23.73 5.575 23.76 5.495 23.81 5.435C23.86 5.375 23.93 5.345 24.02 5.345C24.07 5.345 24.11 5.345 24.14 5.365ZM23.97 5.635C23.97 5.635 23.9 5.635 23.87 5.675C23.84 5.695 23.83 5.725 23.83 5.755C23.83 5.795 23.84 5.825 23.87 5.855C23.9 5.885 23.93 5.895 23.97 5.895C24.01 5.895 24.04 5.885 24.07 5.855C24.1 5.825 24.11 5.795 24.11 5.765C24.11 5.725 24.1 5.695 24.07 5.665C24.05 5.645 24.01 5.625 23.97 5.625V5.635Z" fill="#444549"/>
<path d="M24.49 5.955C24.42 5.955 24.37 5.935 24.33 5.885C24.29 5.835 24.27 5.765 24.27 5.675C24.27 5.575 24.29 5.495 24.33 5.445C24.37 5.395 24.43 5.365 24.5 5.365C24.65 5.365 24.72 5.465 24.72 5.665C24.72 5.765 24.7 5.835 24.66 5.895C24.62 5.955 24.56 5.975 24.49 5.975V5.955ZM24.5 5.405C24.4 5.405 24.35 5.485 24.35 5.655C24.35 5.815 24.4 5.895 24.5 5.895C24.6 5.895 24.64 5.815 24.64 5.655C24.64 5.495 24.59 5.405 24.5 5.405Z" fill="#444549"/>
<path d="M24.96 5.635C24.88 5.605 24.84 5.555 24.84 5.495C24.84 5.455 24.86 5.415 24.9 5.395C24.94 5.365 24.99 5.355 25.05 5.355C25.1 5.355 25.15 5.355 25.18 5.395C25.21 5.425 25.23 5.455 25.23 5.495C25.23 5.555 25.19 5.605 25.1 5.645C25.2 5.675 25.25 5.725 25.25 5.805C25.25 5.855 25.23 5.895 25.19 5.915C25.15 5.945 25.09 5.955 25.02 5.955C24.96 5.955 24.91 5.945 24.87 5.915C24.83 5.885 24.81 5.855 24.81 5.805C24.81 5.735 24.86 5.675 24.96 5.645V5.635ZM25.02 5.675C24.93 5.705 24.89 5.745 24.89 5.805C24.89 5.835 24.9 5.855 24.93 5.875C24.96 5.895 24.99 5.905 25.03 5.905C25.07 5.905 25.1 5.905 25.13 5.875C25.16 5.855 25.17 5.835 25.17 5.805C25.17 5.745 25.12 5.705 25.03 5.675H25.02ZM25.14 5.495C25.14 5.495 25.14 5.445 25.11 5.435C25.09 5.415 25.06 5.415 25.03 5.415C25 5.415 24.97 5.415 24.95 5.435C24.93 5.455 24.92 5.475 24.92 5.495C24.92 5.545 24.96 5.585 25.03 5.605C25.11 5.575 25.15 5.545 25.15 5.495H25.14Z" fill="#444549"/>
<path d="M20.84 29.935H22.41L23.37 27.955H21.79L20.84 29.935Z" fill="url(#paint2_linear_190_195)"/>
<path d="M8.72003 29.935H9.14003L10.09 27.955H9.68003L8.72003 29.935Z" fill="url(#paint3_linear_190_195)"/>
<path d="M14.12 29.935H14.32L15.27 27.955H15.07L14.12 29.935Z" fill="url(#paint4_linear_190_195)"/>
<path d="M13.72 29.935H13.92L14.87 27.955H14.67L13.72 29.935Z" fill="url(#paint5_linear_190_195)"/>
<path d="M12.33 29.935H12.53L13.49 27.955H13.28L12.33 29.935Z" fill="url(#paint6_linear_190_195)"/>
<path d="M26.03 27.955H25.21L24.27 29.915C25.23 29.785 25.98 28.965 26.03 27.955Z" fill="url(#paint7_linear_190_195)"/>
<path d="M7.33002 29.845L8.24002 27.955H6.66002L6.18002 28.945C6.44002 29.375 6.84002 29.705 7.32002 29.845H7.33002Z" fill="url(#paint8_linear_190_195)"/>
<path d="M18.04 29.935H19.62L20.57 27.955H19L18.04 29.935Z" fill="url(#paint9_linear_190_195)"/>
<path d="M15 29.935H17.68L18.63 27.955H15.96L15 29.935Z" fill="url(#paint10_linear_190_195)"/>
<path d="M25.09 15.445H24.91V17.445H25.09V15.445Z" fill="#444549"/>
<path d="M24.64 15.445H24.46V17.445H24.64V15.445Z" fill="#444549"/>
<path d="M24.17 15.445H23.99V17.445H24.17V15.445Z" fill="#444549"/>
<path d="M12.82 3.235C12.82 3.235 12.8 3.215 12.79 3.205C12.79 3.205 12.77 3.185 12.76 3.175C12.76 3.175 12.74 3.175 12.73 3.155C12.73 3.155 12.78 3.135 12.8 3.125C12.82 3.115 12.84 3.095 12.85 3.085C12.86 3.065 12.88 3.045 12.88 3.025C12.88 3.005 12.89 2.975 12.89 2.955C12.89 2.925 12.89 2.895 12.87 2.865C12.86 2.835 12.84 2.815 12.82 2.805C12.8 2.785 12.77 2.775 12.75 2.765C12.72 2.765 12.69 2.765 12.66 2.765H12.43V3.525H12.52V3.205H12.63C12.63 3.205 12.66 3.205 12.67 3.225C12.68 3.225 12.69 3.245 12.7 3.255C12.71 3.265 12.72 3.285 12.73 3.305L12.86 3.515H12.97L12.83 3.285C12.83 3.285 12.81 3.255 12.8 3.245H12.82V3.235ZM12.71 3.095C12.71 3.095 12.67 3.095 12.65 3.095H12.53V2.815H12.65C12.65 2.815 12.74 2.815 12.76 2.845C12.79 2.865 12.8 2.895 12.8 2.945C12.8 2.965 12.8 2.985 12.79 3.005C12.79 3.025 12.77 3.035 12.76 3.055C12.75 3.055 12.73 3.075 12.71 3.085V3.095Z" fill="#515153"/>
<path d="M11.03 3.155H11.31V3.075H11.03V2.825H11.33V2.745H10.94V3.505H11.35V3.425H11.03V3.155Z" fill="#515153"/>
<path d="M9.35004 2.825H9.57004V3.505H9.66004V2.825H9.88004V2.745H9.35004V2.825Z" fill="#515153"/>
<path d="M8.19003 3.285V3.395C8.19003 3.395 8.19003 3.365 8.16003 3.345L7.78003 2.745H7.66003V3.505H7.75003V2.855C7.75003 2.855 7.75003 2.885 7.77003 2.905L8.16003 3.515H8.27003V2.755H8.18003V3.295L8.19003 3.285Z" fill="#515153"/>
<path d="M15.98 3.045L16.04 2.885C16.04 2.885 16.04 2.855 16.05 2.835C16.05 2.835 16.05 2.875 16.06 2.885L16.14 3.095C16.14 3.095 16.22 3.125 16.25 3.145L16.1 2.745H16.01L15.9 3.035C15.9 3.035 15.96 3.035 15.98 3.055V3.045Z" fill="#515153"/>
<path d="M6.52002 2.745H6.43002V3.505H6.52002V2.745Z" fill="#515153"/>
<path d="M20.45 2.735C20.34 2.735 20.25 2.775 20.18 2.845C20.11 2.915 20.08 3.015 20.08 3.135C20.08 3.245 20.11 3.345 20.18 3.415C20.25 3.485 20.33 3.525 20.44 3.525C20.55 3.525 20.64 3.485 20.7 3.415C20.76 3.345 20.8 3.245 20.8 3.115C20.8 3.005 20.77 2.905 20.7 2.835C20.64 2.765 20.55 2.725 20.45 2.725V2.735ZM20.63 3.355C20.58 3.405 20.52 3.435 20.43 3.435C20.35 3.435 20.29 3.405 20.24 3.345C20.19 3.285 20.17 3.215 20.17 3.115C20.17 3.015 20.19 2.945 20.24 2.885C20.29 2.825 20.36 2.795 20.44 2.795C20.52 2.795 20.59 2.825 20.63 2.875C20.68 2.925 20.7 3.005 20.7 3.105C20.7 3.205 20.68 3.275 20.63 3.335V3.355Z" fill="#515153"/>
<path d="M23.86 2.745L23.57 3.505H23.67L23.75 3.295H24.07L24.15 3.505H24.25L23.96 2.745H23.86ZM23.78 3.215L23.9 2.895C23.9 2.895 23.9 2.865 23.91 2.845C23.91 2.845 23.91 2.885 23.92 2.895L24.04 3.215H23.78Z" fill="#515153"/>
<path d="M25.4 3.425V2.745H25.31V3.505H25.7V3.425H25.4Z" fill="#515153"/>
<path d="M22.42 3.285V3.395C22.42 3.395 22.41 3.365 22.39 3.345L22.01 2.745H21.89V3.505H21.98V2.855C21.98 2.855 21.99 2.885 22 2.905L22.39 3.515H22.5V2.755H22.41V3.295H22.42V3.285Z" fill="#515153"/>
<path d="M18.98 2.745H18.89V3.505H18.98V2.745Z" fill="#515153"/>
<path d="M14.15 2.895L14.54 3.505H14.65V2.745H14.56V3.395C14.56 3.395 14.55 3.365 14.53 3.345L14.15 2.745H14.03V3.505H14.12V2.855C14.12 2.855 14.13 2.885 14.14 2.905L14.15 2.895Z" fill="#515153"/>
<path d="M17.3 2.825H17.52V3.505H17.6V2.825H17.82V2.745H17.3V2.825Z" fill="#515153"/>
<path d="M15.77 3.105C15.03 3.105 14.44 3.705 14.44 4.445C14.44 5.185 15.04 5.785 15.77 5.785C16.5 5.785 17.1 5.185 17.1 4.445C17.1 3.705 16.5 3.105 15.77 3.105ZM15.77 5.735C15.07 5.735 14.5 5.155 14.5 4.455C14.5 3.755 15.07 3.175 15.77 3.175C16.47 3.175 17.04 3.755 17.04 4.455C17.04 5.155 16.47 5.735 15.77 5.735Z" fill="url(#paint11_linear_190_195)"/>
<path d="M26.05 18.845V24.165C25.4 24.105 24.64 24.015 23.76 23.895C22.36 23.705 21.27 22.415 19.91 22.055C18.55 21.695 16.23 22.475 14.87 22.585C12.66 22.755 11.34 24.235 10.07 24.235C7.66 24.215 6.56 25.515 6.03 25.395V17.155C6.03 15.775 6.95 16.535 8.08 16.225L23.99 16.915C25.12 16.605 26.04 17.465 26.04 18.835H26.05V18.845Z" fill="url(#paint12_linear_190_195)"/>
<path d="M10.4 24.975L9.86002 22.795L9.88002 27.165H8.65002V19.875H10.04L10.85 22.785L11.65 19.875H13.01V27.165L11.84 27.195L11.8 22.915L11.28 24.975H10.4Z" fill="url(#paint13_linear_190_195)"/>
<path d="M17.26 27.165L17 25.435H15.61L15.31 27.165H13.99L15.38 19.875H17.25L18.65 27.165H17.26ZM16.82 24.175L16.36 21.105L15.84 24.175H16.82Z" fill="url(#paint14_linear_190_195)"/>
<path d="M19.57 27.165V19.875H21.64C22.27 19.875 22.76 20.035 23.11 20.365C23.46 20.695 23.64 21.185 23.64 21.855V23.005C23.64 23.665 23.47 24.145 23.13 24.445C22.79 24.745 22.29 24.905 21.65 24.905H21.01V27.175H19.57V27.165ZM21.01 23.655H21.56C21.76 23.655 21.91 23.595 22.01 23.485C22.11 23.365 22.16 23.155 22.16 22.835V21.975C22.16 21.645 22.11 21.425 22.01 21.305C21.91 21.185 21.76 21.125 21.56 21.125H21.01V23.645V23.655Z" fill="url(#paint15_linear_190_195)"/>
<path d="M8.98002 19.545C8.86002 19.545 8.77002 19.515 8.70002 19.455C8.64002 19.395 8.61002 19.305 8.61002 19.185V18.815C8.61002 18.695 8.64002 18.595 8.70002 18.535C8.76002 18.475 8.85002 18.445 8.98002 18.445C9.11002 18.445 9.19002 18.475 9.24002 18.535C9.29002 18.595 9.33002 18.695 9.33002 18.835H9.08002C9.08002 18.765 9.08002 18.705 9.05002 18.675C9.05002 18.645 9.01002 18.635 8.97002 18.635C8.93002 18.635 8.90002 18.655 8.88002 18.685C8.86002 18.715 8.86002 18.775 8.86002 18.845V19.165C8.86002 19.235 8.86002 19.295 8.88002 19.325C8.90002 19.355 8.93002 19.375 8.97002 19.375C9.01002 19.375 9.04002 19.365 9.05002 19.335C9.06002 19.305 9.07002 19.255 9.08002 19.165H9.33002C9.33002 19.315 9.29002 19.415 9.24002 19.475C9.19002 19.535 9.10002 19.565 8.98002 19.565V19.545Z" fill="url(#paint16_linear_190_195)"/>
<path d="M10.69 19.545C10.58 19.545 10.49 19.515 10.43 19.455C10.37 19.395 10.34 19.305 10.34 19.195V18.805C10.34 18.695 10.37 18.605 10.43 18.545C10.49 18.485 10.58 18.445 10.69 18.445C10.8 18.445 10.89 18.475 10.95 18.545C11.01 18.615 11.04 18.695 11.04 18.805V19.195C11.04 19.305 11.01 19.395 10.95 19.455C10.89 19.515 10.8 19.545 10.69 19.545ZM10.69 19.365C10.69 19.365 10.75 19.355 10.76 19.325C10.77 19.295 10.78 19.245 10.78 19.175V18.825C10.78 18.755 10.78 18.695 10.76 18.675C10.75 18.645 10.72 18.635 10.69 18.635C10.66 18.635 10.63 18.645 10.62 18.675C10.61 18.705 10.6 18.755 10.6 18.825V19.175C10.6 19.245 10.6 19.295 10.62 19.325C10.63 19.355 10.66 19.365 10.69 19.365Z" fill="url(#paint17_linear_190_195)"/>
<path d="M12.35 19.215L12.26 18.835L12.29 19.535H12.07V18.455H12.29L12.43 18.955L12.57 18.455H12.79V19.535H12.57L12.6 18.855L12.51 19.215H12.35Z" fill="url(#paint18_linear_190_195)"/>
<path d="M14.09 19.215L14 18.835L14.03 19.535H13.81V18.455H14.03L14.17 18.955L14.31 18.455H14.53V19.535H14.31L14.34 18.855L14.25 19.215H14.09Z" fill="url(#paint19_linear_190_195)"/>
<path d="M15.9 19.545C15.78 19.545 15.69 19.515 15.63 19.455C15.57 19.395 15.54 19.295 15.54 19.165V18.455H15.79V19.155C15.79 19.235 15.79 19.285 15.81 19.305C15.82 19.335 15.85 19.345 15.89 19.345C15.93 19.345 15.95 19.335 15.97 19.305C15.98 19.275 15.99 19.225 15.99 19.155V18.455H16.24V19.165C16.24 19.295 16.21 19.395 16.15 19.455C16.09 19.515 16 19.545 15.88 19.545H15.9Z" fill="url(#paint20_linear_190_195)"/>
<path d="M17.7 19.535L17.5 18.805V19.535H17.29V18.455H17.56L17.78 19.225V18.455H17.99V19.535H17.7Z" fill="url(#paint21_linear_190_195)"/>
<path d="M19.02 19.535V19.345H19.25V18.635H19.02V18.445H19.72V18.635H19.49V19.345H19.72V19.535H19.02Z" fill="url(#paint22_linear_190_195)"/>
<path d="M20.98 19.535V18.635H20.73V18.445H21.48V18.635H21.23V19.535H20.98Z" fill="url(#paint23_linear_190_195)"/>
<path d="M22.96 19.535H22.71V19.135L22.44 18.455H22.69L22.83 18.875L22.98 18.455H23.23L22.96 19.135V19.535Z" fill="url(#paint24_linear_190_195)"/>
<path d="M18.74 12.175C18.82 12.195 18.81 12.125 18.83 12.075C18.98 11.645 19.13 10.745 19.89 10.775C20.01 10.775 20.56 10.885 20.66 10.935C20.74 10.975 20.83 11.055 20.8 11.145C20.13 10.815 19.8 11.445 19.67 11.885C19.82 11.815 20 11.675 20.08 11.545C20.21 11.335 20.1 11.045 20.64 11.185C21.33 11.365 20.87 11.975 20.5 12.215C20.23 12.395 20.1 12.365 19.79 12.395C19.72 12.395 19.68 12.355 19.7 12.455C19.89 13.205 20.32 12.655 20.68 12.655C20.83 12.655 21.03 12.735 21.18 12.765C21.35 12.985 20.95 13.195 20.74 13.255C19.98 13.505 19.23 13.345 18.88 12.675C18.82 12.565 18.92 12.395 18.73 12.425C18.56 13.095 17.14 13.395 16.51 13.125C16.43 13.095 16.19 12.815 16.18 12.735C16.17 12.625 16.29 12.535 16.32 12.405C16.4 11.945 16.22 11.015 16.56 10.695C16.87 10.395 17.53 10.755 17.8 10.975C18.17 11.265 18.68 11.765 18.75 12.185H18.74V12.175ZM17.19 12.685C17.94 12.525 18.05 12.215 17.62 11.665C17.57 11.605 17.17 11.195 17.11 11.245L17.2 12.675H17.19V12.685ZM18.03 12.845C17.71 12.845 17.37 12.925 17.07 12.785V12.935C17.37 12.935 17.8 13.065 18.03 12.845Z" fill="black"/>
<path d="M24.57 10.485C24.83 10.715 24.51 11.285 24.46 11.565C24.39 11.985 24.48 12.315 24.58 12.725C24.63 12.945 24.91 13.625 24.8 13.765C24.51 14.115 23.56 13.655 23.25 13.465C23.12 13.385 22.58 12.925 22.49 12.985C22.65 13.345 22.22 13.825 21.79 13.625C21.42 13.455 21.64 13.205 21.65 13.005C21.65 12.655 21.53 12.015 21.65 11.705C21.71 11.535 21.89 11.375 21.91 11.175C21.98 11.105 22.54 11.215 22.6 11.275C22.71 11.365 22.62 11.625 22.66 11.745C22.74 12.045 23.25 12.665 23.54 12.885C23.6 12.925 23.61 12.985 23.72 12.975C23.56 12.135 23.57 11.335 23.89 10.525C23.92 10.465 23.96 10.365 24.05 10.345C24.11 10.345 24.54 10.445 24.59 10.485H24.57ZM24.56 10.775C24.38 10.815 23.81 10.585 23.89 10.855C23.92 10.955 24.23 10.965 24.32 11.005C24.41 11.045 24.27 11.195 24.47 11.175L24.56 10.775Z" fill="black"/>
<path d="M7.7 12.155C7.7 12.155 7.9 12.275 7.95 12.285C8.66 12.405 9.55 11.245 9.56 10.705L10.25 10.725C10.52 11.785 8.99 13.045 7.75 12.815C7.28 12.725 6.89 12.325 6.85 11.935C6.77 11.135 7.27 9.205 7.94 8.625C8.12 8.465 8.16 8.465 8.42 8.495C9.17 8.585 8.76 8.715 8.55 8.945C7.97 9.585 7.53 10.915 7.58 11.725C7.58 11.805 7.65 12.105 7.68 12.155H7.7Z" fill="black"/>
<path d="M11.84 10.215C12.44 10.215 12.99 10.755 13.05 11.235C13.11 11.755 12.9 12.325 12.4 12.635C11.43 13.235 10.34 12.905 10.56 11.785C10.65 11.345 11.21 10.215 11.84 10.225V10.215ZM12.04 10.725C11.84 10.715 11.38 11.645 11.34 11.835C11.29 12.085 11.2 12.485 11.63 12.325C12.18 12.115 12.57 11.115 12.04 10.725Z" fill="black"/>
<path d="M14.42 10.535C14.73 10.705 14.19 12.035 14.46 12.415C14.58 12.585 14.97 12.185 15.2 12.215L15.7 12.425C15.23 13.285 13.7 13.405 13.61 12.235C13.59 12.025 13.74 10.505 13.84 10.445L14.42 10.545V10.535Z" fill="black"/>
<path d="M10.26 10.655C9.99999 10.515 9.52999 10.545 9.26999 10.645C9.16999 10.685 9.33999 10.835 8.88999 10.825C8.67999 10.825 8.45999 10.805 8.45999 10.575C8.45999 10.395 9.15999 10.285 9.33999 10.285C9.44999 10.285 10.47 10.455 10.25 10.655H10.26Z" fill="black"/>
<defs>
<linearGradient id="paint0_linear_190_195" x1="25.65" y1="2.275" x2="6.35001" y2="29.725" gradientUnits="userSpaceOnUse">
<stop stop-color="#FDFAF1"/>
<stop offset="1" stop-color="#A29885"/>
</linearGradient>
<linearGradient id="paint1_linear_190_195" x1="25.59" y1="2.355" x2="6.43" y2="29.605" gradientUnits="userSpaceOnUse">
<stop stop-color="#F8F3EB"/>
<stop offset="1" stop-color="#EDE2D5"/>
</linearGradient>
<linearGradient id="paint2_linear_190_195" x1="20.84" y1="28.945" x2="23.37" y2="28.945" gradientUnits="userSpaceOnUse">
<stop stop-color="#F8F3EB"/>
<stop offset="1" stop-color="#EDE2D5"/>
</linearGradient>
<linearGradient id="paint3_linear_190_195" x1="8.72003" y1="28.945" x2="10.09" y2="28.945" gradientUnits="userSpaceOnUse">
<stop stop-color="#F8F3EB"/>
<stop offset="1" stop-color="#EDE2D5"/>
</linearGradient>
<linearGradient id="paint4_linear_190_195" x1="14.12" y1="28.945" x2="15.27" y2="28.945" gradientUnits="userSpaceOnUse">
<stop stop-color="#F8F3EB"/>
<stop offset="1" stop-color="#EDE2D5"/>
</linearGradient>
<linearGradient id="paint5_linear_190_195" x1="13.72" y1="28.945" x2="14.87" y2="28.945" gradientUnits="userSpaceOnUse">
<stop stop-color="#F8F3EB"/>
<stop offset="1" stop-color="#EDE2D5"/>
</linearGradient>
<linearGradient id="paint6_linear_190_195" x1="12.33" y1="28.945" x2="13.49" y2="28.945" gradientUnits="userSpaceOnUse">
<stop stop-color="#F8F3EB"/>
<stop offset="1" stop-color="#EDE2D5"/>
</linearGradient>
<linearGradient id="paint7_linear_190_195" x1="24.26" y1="28.935" x2="26.03" y2="28.935" gradientUnits="userSpaceOnUse">
<stop stop-color="#F8F3EB"/>
<stop offset="1" stop-color="#EDE2D5"/>
</linearGradient>
<linearGradient id="paint8_linear_190_195" x1="6.19002" y1="28.895" x2="8.24002" y2="28.895" gradientUnits="userSpaceOnUse">
<stop stop-color="#F8F3EB"/>
<stop offset="1" stop-color="#EDE2D5"/>
</linearGradient>
<linearGradient id="paint9_linear_190_195" x1="18.04" y1="28.945" x2="20.57" y2="28.945" gradientUnits="userSpaceOnUse">
<stop stop-color="#F8F3EB"/>
<stop offset="1" stop-color="#EDE2D5"/>
</linearGradient>
<linearGradient id="paint10_linear_190_195" x1="15" y1="28.945" x2="18.63" y2="28.945" gradientUnits="userSpaceOnUse">
<stop stop-color="#F8F3EB"/>
<stop offset="1" stop-color="#EDE2D5"/>
</linearGradient>
<linearGradient id="paint11_linear_190_195" x1="14.92" y1="5.845" x2="16.62" y2="3.055" gradientUnits="userSpaceOnUse">
<stop stop-color="#FDFAF1"/>
<stop offset="1" stop-color="#A29885"/>
</linearGradient>
<linearGradient id="paint12_linear_190_195" x1="77.5807" y1="7.18966" x2="75.0513" y2="-2.29642" gradientUnits="userSpaceOnUse">
<stop stop-color="#FFFBEC" stop-opacity="0.3"/>
<stop offset="0.14" stop-color="#FFF6E2" stop-opacity="0.2"/>
<stop offset="0.32" stop-color="#FFF2DA" stop-opacity="0.11"/>
<stop offset="0.51" stop-color="#FFEFD4" stop-opacity="0.05"/>
<stop offset="0.72" stop-color="#FFEDD1" stop-opacity="0.01"/>
<stop offset="1" stop-color="#FFEDD0" stop-opacity="0"/>
</linearGradient>
<linearGradient id="paint13_linear_190_195" x1="8.65002" y1="23.535" x2="13.02" y2="23.535" gradientUnits="userSpaceOnUse">
<stop stop-color="#F8F3EB"/>
<stop offset="1" stop-color="#EDE2D5"/>
</linearGradient>
<linearGradient id="paint14_linear_190_195" x1="14" y1="23.525" x2="18.65" y2="23.525" gradientUnits="userSpaceOnUse">
<stop stop-color="#F8F3EB"/>
<stop offset="1" stop-color="#EDE2D5"/>
</linearGradient>
<linearGradient id="paint15_linear_190_195" x1="19.57" y1="23.525" x2="23.64" y2="23.525" gradientUnits="userSpaceOnUse">
<stop stop-color="#F8F3EB"/>
<stop offset="1" stop-color="#EDE2D5"/>
</linearGradient>
<linearGradient id="paint16_linear_190_195" x1="8.61002" y1="19.005" x2="9.33002" y2="19.005" gradientUnits="userSpaceOnUse">
<stop stop-color="#F8F3EB"/>
<stop offset="1" stop-color="#EDE2D5"/>
</linearGradient>
<linearGradient id="paint17_linear_190_195" x1="10.34" y1="18.995" x2="11.04" y2="18.995" gradientUnits="userSpaceOnUse">
<stop stop-color="#F8F3EB"/>
<stop offset="1" stop-color="#EDE2D5"/>
</linearGradient>
<linearGradient id="paint18_linear_190_195" x1="12.07" y1="18.995" x2="12.78" y2="18.995" gradientUnits="userSpaceOnUse">
<stop stop-color="#F8F3EB"/>
<stop offset="1" stop-color="#EDE2D5"/>
</linearGradient>
<linearGradient id="paint19_linear_190_195" x1="13.81" y1="18.995" x2="14.52" y2="18.995" gradientUnits="userSpaceOnUse">
<stop stop-color="#F8F3EB"/>
<stop offset="1" stop-color="#EDE2D5"/>
</linearGradient>
<linearGradient id="paint20_linear_190_195" x1="15.54" y1="18.995" x2="16.25" y2="18.995" gradientUnits="userSpaceOnUse">
<stop stop-color="#F8F3EB"/>
<stop offset="1" stop-color="#EDE2D5"/>
</linearGradient>
<linearGradient id="paint21_linear_190_195" x1="17.28" y1="18.995" x2="17.98" y2="18.995" gradientUnits="userSpaceOnUse">
<stop stop-color="#F8F3EB"/>
<stop offset="1" stop-color="#EDE2D5"/>
</linearGradient>
<linearGradient id="paint22_linear_190_195" x1="19.02" y1="18.985" x2="19.72" y2="18.985" gradientUnits="userSpaceOnUse">
<stop stop-color="#F8F3EB"/>
<stop offset="1" stop-color="#EDE2D5"/>
</linearGradient>
<linearGradient id="paint23_linear_190_195" x1="20.73" y1="18.985" x2="21.48" y2="18.985" gradientUnits="userSpaceOnUse">
<stop stop-color="#F8F3EB"/>
<stop offset="1" stop-color="#EDE2D5"/>
</linearGradient>
<linearGradient id="paint24_linear_190_195" x1="22.45" y1="18.995" x2="23.23" y2="18.995" gradientUnits="userSpaceOnUse">
<stop stop-color="#F8F3EB"/>
<stop offset="1" stop-color="#EDE2D5"/>
</linearGradient>
</defs>
</svg>
