<svg width="32" height="32" viewBox="0 0 32 32" fill="none" xmlns="http://www.w3.org/2000/svg">
<path d="M24.15 1.715H7.72999C6.55999 1.715 5.60999 2.715 5.60999 3.935V28.065C5.60999 29.295 6.55999 30.285 7.72999 30.285H24.15C25.32 30.285 26.27 29.285 26.27 28.065V3.935C26.27 2.705 25.32 1.715 24.15 1.715ZM15.7 5.765C14.99 5.765 14.41 5.165 14.41 4.415C14.41 3.665 14.99 3.065 15.7 3.065C16.41 3.065 16.99 3.665 16.99 4.415C16.99 5.165 16.41 5.765 15.7 5.765Z" fill="url(#paint0_linear_189_2)"/>
<path d="M24.08 1.785H7.81997C6.65997 1.785 5.71997 2.775 5.71997 3.995V27.965C5.71997 29.185 6.65997 30.175 7.81997 30.175H24.08C25.24 30.175 26.18 29.185 26.18 27.965V3.995C26.18 2.775 25.24 1.785 24.08 1.785ZM15.72 5.805C15.02 5.805 14.44 5.205 14.44 4.465C14.44 3.725 15.01 3.125 15.72 3.125C16.43 3.125 17 3.725 17 4.465C17 5.205 16.43 5.805 15.72 5.805Z" fill="url(#paint1_linear_189_2)"/>
<path d="M5.68997 28.105C5.68997 29.265 6.59997 30.205 7.71997 30.205H24.12C25.24 30.205 26.15 29.265 26.15 28.105V17.715H5.68997V28.105Z" fill="#4DA5C4"/>
<path d="M24.09 1.855H7.81997C6.65997 1.855 5.71997 2.795 5.71997 3.955V4.905H14.48C14.41 4.725 14.37 4.555 14.37 4.365C14.37 3.625 14.97 3.035 15.7 3.035C16.43 3.035 17.03 3.635 17.03 4.365C17.03 4.555 16.99 4.725 16.92 4.895H26.17V3.955C26.17 2.795 25.23 1.855 24.07 1.855H24.09Z" fill="#4DA5C4"/>
<path d="M21.98 5.385L21.7 5.945H21.62L21.88 5.425H21.53V5.365H21.98V5.385Z" fill="#444549"/>
<path d="M22.09 5.925V5.855C22.09 5.855 22.19 5.905 22.25 5.905C22.3 5.905 22.34 5.905 22.37 5.875C22.4 5.855 22.41 5.825 22.41 5.795C22.41 5.715 22.35 5.685 22.22 5.685H22.16V5.625H22.21C22.32 5.625 22.38 5.585 22.38 5.515C22.38 5.445 22.34 5.415 22.25 5.415C22.2 5.415 22.16 5.415 22.11 5.455V5.395C22.11 5.395 22.21 5.365 22.27 5.365C22.33 5.365 22.38 5.365 22.41 5.405C22.45 5.435 22.46 5.465 22.46 5.505C22.46 5.585 22.41 5.635 22.32 5.655C22.32 5.655 22.41 5.675 22.44 5.705C22.47 5.735 22.48 5.765 22.48 5.795C22.48 5.845 22.46 5.885 22.41 5.925C22.37 5.955 22.31 5.975 22.23 5.975C22.16 5.975 22.11 5.965 22.07 5.945L22.09 5.925Z" fill="#444549"/>
<path d="M22.64 5.925V5.855C22.64 5.855 22.74 5.895 22.79 5.895C22.84 5.895 22.88 5.885 22.91 5.865C22.94 5.845 22.95 5.815 22.95 5.775C22.95 5.735 22.94 5.705 22.9 5.685C22.87 5.665 22.83 5.655 22.77 5.655H22.66V5.365H23V5.425H22.74V5.595H22.8C22.87 5.595 22.93 5.615 22.97 5.645C23.01 5.675 23.03 5.715 23.03 5.775C23.03 5.835 23.01 5.875 22.96 5.915C22.92 5.945 22.86 5.965 22.78 5.965C22.72 5.965 22.67 5.965 22.64 5.945V5.925Z" fill="#444549"/>
<path d="M23.17 5.925V5.855C23.17 5.855 23.27 5.895 23.32 5.895C23.37 5.895 23.41 5.885 23.44 5.865C23.47 5.845 23.48 5.815 23.48 5.775C23.48 5.735 23.47 5.705 23.43 5.685C23.4 5.665 23.36 5.655 23.3 5.655H23.19V5.365H23.53V5.425H23.27V5.595H23.33C23.4 5.595 23.46 5.615 23.5 5.645C23.54 5.675 23.56 5.715 23.56 5.775C23.56 5.835 23.54 5.875 23.49 5.915C23.45 5.945 23.39 5.965 23.31 5.965C23.25 5.965 23.2 5.965 23.17 5.945V5.925Z" fill="#444549"/>
<path d="M24.08 5.365V5.425C24.08 5.425 24.01 5.405 23.97 5.405C23.91 5.405 23.86 5.425 23.82 5.475C23.78 5.525 23.76 5.585 23.76 5.655C23.76 5.655 23.84 5.575 23.92 5.575C23.98 5.575 24.03 5.595 24.06 5.625C24.09 5.655 24.11 5.705 24.11 5.755C24.11 5.805 24.09 5.855 24.05 5.895C24.01 5.935 23.96 5.945 23.89 5.945C23.82 5.945 23.77 5.925 23.73 5.875C23.69 5.825 23.67 5.765 23.67 5.675C23.67 5.575 23.7 5.495 23.75 5.435C23.8 5.375 23.87 5.345 23.96 5.345C24.01 5.345 24.05 5.345 24.08 5.365ZM23.91 5.635C23.91 5.635 23.84 5.635 23.81 5.675C23.78 5.695 23.77 5.725 23.77 5.755C23.77 5.795 23.78 5.825 23.81 5.855C23.84 5.885 23.87 5.895 23.91 5.895C23.95 5.895 23.98 5.885 24.01 5.855C24.04 5.825 24.05 5.795 24.05 5.765C24.05 5.725 24.04 5.695 24.01 5.665C23.99 5.645 23.95 5.625 23.91 5.625V5.635Z" fill="#444549"/>
<path d="M24.43 5.955C24.36 5.955 24.31 5.935 24.27 5.885C24.23 5.835 24.21 5.765 24.21 5.675C24.21 5.575 24.23 5.495 24.27 5.445C24.31 5.395 24.37 5.365 24.44 5.365C24.59 5.365 24.66 5.465 24.66 5.665C24.66 5.765 24.64 5.835 24.6 5.895C24.56 5.955 24.5 5.975 24.43 5.975V5.955ZM24.44 5.405C24.34 5.405 24.29 5.485 24.29 5.655C24.29 5.815 24.34 5.895 24.44 5.895C24.54 5.895 24.58 5.815 24.58 5.655C24.58 5.495 24.53 5.405 24.44 5.405Z" fill="#444549"/>
<path d="M24.9 5.635C24.82 5.605 24.78 5.555 24.78 5.495C24.78 5.455 24.8 5.415 24.84 5.395C24.88 5.365 24.93 5.355 24.99 5.355C25.04 5.355 25.09 5.355 25.12 5.395C25.15 5.425 25.17 5.455 25.17 5.495C25.17 5.555 25.13 5.605 25.04 5.645C25.14 5.675 25.19 5.725 25.19 5.805C25.19 5.855 25.17 5.895 25.13 5.915C25.09 5.945 25.03 5.955 24.96 5.955C24.9 5.955 24.85 5.945 24.81 5.915C24.77 5.885 24.75 5.855 24.75 5.805C24.75 5.735 24.8 5.675 24.9 5.645V5.635ZM24.96 5.675C24.87 5.705 24.83 5.745 24.83 5.805C24.83 5.835 24.84 5.855 24.87 5.875C24.9 5.895 24.93 5.905 24.97 5.905C25.01 5.905 25.04 5.905 25.07 5.875C25.1 5.855 25.11 5.835 25.11 5.805C25.11 5.745 25.06 5.705 24.97 5.675H24.96ZM25.08 5.495C25.08 5.495 25.08 5.445 25.05 5.435C25.03 5.415 25 5.415 24.97 5.415C24.94 5.415 24.91 5.415 24.89 5.435C24.87 5.455 24.86 5.475 24.86 5.495C24.86 5.545 24.9 5.585 24.97 5.605C25.05 5.575 25.09 5.545 25.09 5.495H25.08Z" fill="#444549"/>
<path d="M20.78 29.935H22.35L23.31 27.955H21.73L20.78 29.935Z" fill="url(#paint2_linear_189_2)"/>
<path d="M8.66 29.935H9.08L10.03 27.955H9.62L8.66 29.935Z" fill="url(#paint3_linear_189_2)"/>
<path d="M14.06 29.935H14.26L15.21 27.955H15.01L14.06 29.935Z" fill="url(#paint4_linear_189_2)"/>
<path d="M13.66 29.935H13.86L14.81 27.955H14.61L13.66 29.935Z" fill="url(#paint5_linear_189_2)"/>
<path d="M12.27 29.935H12.47L13.43 27.955H13.22L12.27 29.935Z" fill="url(#paint6_linear_189_2)"/>
<path d="M25.97 27.955H25.15L24.21 29.915C25.17 29.785 25.92 28.965 25.97 27.955Z" fill="url(#paint7_linear_189_2)"/>
<path d="M7.27 29.845L8.18 27.955H6.6L6.12 28.945C6.38 29.375 6.78 29.705 7.26 29.845H7.27Z" fill="url(#paint8_linear_189_2)"/>
<path d="M17.98 29.935H19.56L20.51 27.955H18.94L17.98 29.935Z" fill="url(#paint9_linear_189_2)"/>
<path d="M14.94 29.935H17.62L18.57 27.955H15.9L14.94 29.935Z" fill="url(#paint10_linear_189_2)"/>
<path d="M25.03 15.445H24.85V17.445H25.03V15.445Z" fill="#444549"/>
<path d="M24.58 15.445H24.4V17.445H24.58V15.445Z" fill="#444549"/>
<path d="M24.11 15.445H23.93V17.445H24.11V15.445Z" fill="#444549"/>
<path d="M12.76 3.235C12.76 3.235 12.74 3.215 12.73 3.205C12.73 3.205 12.71 3.185 12.7 3.175C12.7 3.175 12.68 3.175 12.67 3.155C12.67 3.155 12.72 3.135 12.74 3.125C12.76 3.115 12.78 3.095 12.79 3.085C12.8 3.065 12.82 3.045 12.82 3.025C12.82 3.005 12.83 2.975 12.83 2.955C12.83 2.925 12.83 2.895 12.81 2.865C12.8 2.835 12.78 2.815 12.76 2.805C12.74 2.785 12.71 2.775 12.69 2.765C12.66 2.765 12.63 2.765 12.6 2.765H12.37V3.525H12.46V3.205H12.57C12.57 3.205 12.6 3.205 12.61 3.225C12.62 3.225 12.63 3.245 12.64 3.255C12.65 3.265 12.66 3.285 12.67 3.305L12.8 3.515H12.91L12.77 3.285C12.77 3.285 12.75 3.255 12.74 3.245H12.76V3.235ZM12.65 3.095C12.65 3.095 12.61 3.095 12.59 3.095H12.47V2.815H12.59C12.59 2.815 12.68 2.815 12.7 2.845C12.73 2.865 12.74 2.895 12.74 2.945C12.74 2.965 12.74 2.985 12.73 3.005C12.73 3.025 12.71 3.035 12.7 3.055C12.69 3.055 12.67 3.075 12.65 3.085V3.095Z" fill="#515153"/>
<path d="M10.97 3.155H11.25V3.075H10.97V2.825H11.27V2.745H10.88V3.505H11.29V3.425H10.97V3.155Z" fill="#515153"/>
<path d="M9.29001 2.825H9.51001V3.505H9.60001V2.825H9.82001V2.745H9.29001V2.825Z" fill="#515153"/>
<path d="M8.13001 3.285V3.395C8.13001 3.395 8.13001 3.365 8.10001 3.345L7.72001 2.745H7.60001V3.505H7.69001V2.855C7.69001 2.855 7.69001 2.885 7.71001 2.905L8.10001 3.515H8.21001V2.755H8.12001V3.295L8.13001 3.285Z" fill="#515153"/>
<path d="M15.92 3.045L15.98 2.885C15.98 2.885 15.98 2.855 15.99 2.835C15.99 2.835 15.99 2.875 16 2.885L16.08 3.095C16.08 3.095 16.16 3.125 16.19 3.145L16.04 2.745H15.95L15.84 3.035C15.84 3.035 15.9 3.035 15.92 3.055V3.045Z" fill="#515153"/>
<path d="M6.46 2.745H6.37V3.505H6.46V2.745Z" fill="#515153"/>
<path d="M20.39 2.735C20.28 2.735 20.19 2.775 20.12 2.845C20.05 2.915 20.02 3.015 20.02 3.135C20.02 3.245 20.05 3.345 20.12 3.415C20.19 3.485 20.27 3.525 20.38 3.525C20.49 3.525 20.58 3.485 20.64 3.415C20.7 3.345 20.74 3.245 20.74 3.115C20.74 3.005 20.71 2.905 20.64 2.835C20.58 2.765 20.49 2.725 20.39 2.725V2.735ZM20.57 3.355C20.52 3.405 20.46 3.435 20.37 3.435C20.29 3.435 20.23 3.405 20.18 3.345C20.13 3.285 20.11 3.215 20.11 3.115C20.11 3.015 20.13 2.945 20.18 2.885C20.23 2.825 20.3 2.795 20.38 2.795C20.46 2.795 20.53 2.825 20.57 2.875C20.62 2.925 20.64 3.005 20.64 3.105C20.64 3.205 20.62 3.275 20.57 3.335V3.355Z" fill="#515153"/>
<path d="M23.8 2.745L23.51 3.505H23.61L23.69 3.295H24.01L24.09 3.505H24.19L23.9 2.745H23.8ZM23.72 3.215L23.84 2.895C23.84 2.895 23.84 2.865 23.85 2.845C23.85 2.845 23.85 2.885 23.86 2.895L23.98 3.215H23.72Z" fill="#515153"/>
<path d="M25.34 3.425V2.745H25.25V3.505H25.64V3.425H25.34Z" fill="#515153"/>
<path d="M22.36 3.285V3.395C22.36 3.395 22.35 3.365 22.33 3.345L21.95 2.745H21.83V3.505H21.92V2.855C21.92 2.855 21.93 2.885 21.94 2.905L22.33 3.515H22.44V2.755H22.35V3.295H22.36V3.285Z" fill="#515153"/>
<path d="M18.92 2.745H18.83V3.505H18.92V2.745Z" fill="#515153"/>
<path d="M14.09 2.895L14.48 3.505H14.59V2.745H14.5V3.395C14.5 3.395 14.49 3.365 14.47 3.345L14.09 2.745H13.97V3.505H14.06V2.855C14.06 2.855 14.07 2.885 14.08 2.905L14.09 2.895Z" fill="#515153"/>
<path d="M17.24 2.825H17.46V3.505H17.54V2.825H17.76V2.745H17.24V2.825Z" fill="#515153"/>
<path d="M15.71 3.105C14.97 3.105 14.38 3.705 14.38 4.445C14.38 5.185 14.98 5.785 15.71 5.785C16.44 5.785 17.04 5.185 17.04 4.445C17.04 3.705 16.44 3.105 15.71 3.105ZM15.71 5.735C15.01 5.735 14.44 5.155 14.44 4.455C14.44 3.755 15.01 3.175 15.71 3.175C16.41 3.175 16.98 3.755 16.98 4.455C16.98 5.155 16.41 5.735 15.71 5.735Z" fill="url(#paint11_linear_189_2)"/>
<path d="M25.99 25.195L26.39 24.795C25.74 24.765 24.98 24.715 24.1 24.645C22.7 24.535 22.48 24.175 20.92 24.155C19.36 24.135 18.67 27.515 14.81 26.035C11.84 24.895 10.33 25.345 9.05997 25.345C6.64997 25.345 6.11997 23.645 5.96997 22.685V20.265C5.96997 19.485 6.88997 18.715 8.01997 18.545L23.93 15.465C25.06 15.285 25.98 15.775 25.98 16.545V25.175L25.99 25.195Z" fill="url(#paint12_linear_189_2)"/>
<path d="M10.34 24.975L9.8 22.795L9.82 27.165H8.59V19.875H9.98L10.79 22.785L11.59 19.875H12.95V27.165L11.78 27.195L11.74 22.915L11.22 24.975H10.34Z" fill="url(#paint13_linear_189_2)"/>
<path d="M17.2 27.165L16.94 25.435H15.55L15.25 27.165H13.93L15.32 19.875H17.19L18.59 27.165H17.2ZM16.76 24.175L16.3 21.105L15.78 24.175H16.76Z" fill="url(#paint14_linear_189_2)"/>
<path d="M19.51 27.165V19.875H21.58C22.21 19.875 22.7 20.035 23.05 20.365C23.4 20.695 23.58 21.185 23.58 21.855V23.005C23.58 23.665 23.41 24.145 23.07 24.445C22.73 24.745 22.23 24.905 21.59 24.905H20.95V27.175H19.51V27.165ZM20.95 23.655H21.5C21.7 23.655 21.85 23.595 21.95 23.485C22.05 23.365 22.1 23.155 22.1 22.835V21.975C22.1 21.645 22.05 21.425 21.95 21.305C21.85 21.185 21.7 21.125 21.5 21.125H20.95V23.645V23.655Z" fill="url(#paint15_linear_189_2)"/>
<path d="M8.91999 19.545C8.79999 19.545 8.70999 19.515 8.63999 19.455C8.57999 19.395 8.54999 19.305 8.54999 19.185V18.815C8.54999 18.695 8.57999 18.595 8.63999 18.535C8.69999 18.475 8.78999 18.445 8.91999 18.445C9.04999 18.445 9.12999 18.475 9.17999 18.535C9.22999 18.595 9.26999 18.695 9.26999 18.835H9.01999C9.01999 18.765 9.01999 18.705 8.98999 18.675C8.98999 18.645 8.94999 18.635 8.90999 18.635C8.86999 18.635 8.83999 18.655 8.81999 18.685C8.79999 18.715 8.79999 18.775 8.79999 18.845V19.165C8.79999 19.235 8.79999 19.295 8.81999 19.325C8.83999 19.355 8.86999 19.375 8.90999 19.375C8.94999 19.375 8.97999 19.365 8.98999 19.335C8.99999 19.305 9.00999 19.255 9.01999 19.165H9.26999C9.26999 19.315 9.22999 19.415 9.17999 19.475C9.12999 19.535 9.03999 19.565 8.91999 19.565V19.545Z" fill="url(#paint16_linear_189_2)"/>
<path d="M10.63 19.545C10.52 19.545 10.43 19.515 10.37 19.455C10.31 19.395 10.28 19.305 10.28 19.195V18.805C10.28 18.695 10.31 18.605 10.37 18.545C10.43 18.485 10.52 18.445 10.63 18.445C10.74 18.445 10.83 18.475 10.89 18.545C10.95 18.615 10.98 18.695 10.98 18.805V19.195C10.98 19.305 10.95 19.395 10.89 19.455C10.83 19.515 10.74 19.545 10.63 19.545ZM10.63 19.365C10.63 19.365 10.69 19.355 10.7 19.325C10.71 19.295 10.72 19.245 10.72 19.175V18.825C10.72 18.755 10.72 18.695 10.7 18.675C10.69 18.645 10.66 18.635 10.63 18.635C10.6 18.635 10.57 18.645 10.56 18.675C10.55 18.705 10.54 18.755 10.54 18.825V19.175C10.54 19.245 10.54 19.295 10.56 19.325C10.57 19.355 10.6 19.365 10.63 19.365Z" fill="url(#paint17_linear_189_2)"/>
<path d="M12.29 19.215L12.2 18.835L12.23 19.535H12.01V18.455H12.23L12.37 18.955L12.51 18.455H12.73V19.535H12.51L12.54 18.855L12.45 19.215H12.29Z" fill="url(#paint18_linear_189_2)"/>
<path d="M14.03 19.215L13.94 18.835L13.97 19.535H13.75V18.455H13.97L14.11 18.955L14.25 18.455H14.47V19.535H14.25L14.28 18.855L14.19 19.215H14.03Z" fill="url(#paint19_linear_189_2)"/>
<path d="M15.84 19.545C15.72 19.545 15.63 19.515 15.57 19.455C15.51 19.395 15.48 19.295 15.48 19.165V18.455H15.73V19.155C15.73 19.235 15.73 19.285 15.75 19.305C15.76 19.335 15.79 19.345 15.83 19.345C15.87 19.345 15.89 19.335 15.91 19.305C15.92 19.275 15.93 19.225 15.93 19.155V18.455H16.18V19.165C16.18 19.295 16.15 19.395 16.09 19.455C16.03 19.515 15.94 19.545 15.82 19.545H15.84Z" fill="url(#paint20_linear_189_2)"/>
<path d="M17.64 19.535L17.44 18.805V19.535H17.23V18.455H17.5L17.72 19.225V18.455H17.93V19.535H17.64Z" fill="url(#paint21_linear_189_2)"/>
<path d="M18.96 19.535V19.345H19.19V18.635H18.96V18.445H19.66V18.635H19.43V19.345H19.66V19.535H18.96Z" fill="url(#paint22_linear_189_2)"/>
<path d="M20.92 19.535V18.635H20.67V18.445H21.42V18.635H21.17V19.535H20.92Z" fill="url(#paint23_linear_189_2)"/>
<path d="M22.9 19.535H22.65V19.135L22.38 18.455H22.63L22.77 18.875L22.92 18.455H23.17L22.9 19.135V19.535Z" fill="url(#paint24_linear_189_2)"/>
<path d="M7.43998 10.605C7.46998 11.265 7.56998 11.925 7.74998 12.555C7.62998 12.555 7.46998 12.585 7.36998 12.525C7.10998 12.375 6.94998 9.905 6.84998 9.435C6.78998 9.135 6.55998 9.125 6.78998 8.775C7.05998 8.365 8.23998 8.205 8.65998 8.455C9.80998 9.135 8.15998 10.355 7.43998 10.605ZM7.42998 10.215C7.53998 10.305 8.58998 9.435 8.49998 9.055C8.34998 8.735 7.55998 8.515 7.39998 8.885C7.33998 9.035 7.34998 10.145 7.42998 10.215Z" fill="black"/>
<path d="M17.25 11.225L16.59 11.535L16.68 12.555L16.2 12.495C16.14 12.325 16.17 11.725 16.1 11.615C16.08 11.575 15.83 11.565 15.8 11.435C15.73 11.215 16.1 11.125 16.11 11.055C16.15 10.905 16.09 10.635 16.11 10.445C16.16 10.115 16.29 9.505 16.51 9.265C17.15 8.585 17.43 10.045 17.54 10.455C17.6 10.695 17.6 10.805 17.64 10.995C17.72 11.365 18.17 12.355 17.43 12.025L17.24 11.225H17.25ZM16.55 10.915L17.11 10.685L16.77 9.705C16.53 10.065 16.53 10.495 16.55 10.905V10.915Z" fill="black"/>
<path d="M12.37 12.115L11.99 12.185L11.74 10.915L10.94 11.295L11.17 12.155L11.07 12.305L10.67 12.235L10.52 11.395L10.21 11.135C10.64 10.925 10.48 10.515 10.53 10.135C10.57 9.845 10.66 9.535 10.84 9.305C11.56 8.385 12.03 10.245 12.14 10.725C12.24 11.155 12.29 11.675 12.36 12.115H12.37ZM11.23 9.515C11.09 9.485 11.13 9.535 11.09 9.595C10.9 9.895 10.97 10.265 10.88 10.585L10.96 10.715L11.62 10.595L11.24 9.515H11.23Z" fill="black"/>
<path d="M24.26 9.775C24.94 9.945 25.27 9.995 25.44 10.735C25.67 11.735 25.02 12.395 24.01 12.225C22.91 12.035 23.7 10.215 24.26 9.775ZM24.45 10.415C24.31 10.455 23.94 11.385 23.99 11.485C25 12.105 25.42 10.695 24.45 10.415Z" fill="black"/>
<path d="M20.73 11.545C20.77 12.365 19.19 12.925 18.92 12.055C18.74 11.465 19.28 9.695 19.94 9.395C20.43 9.785 19.81 10.185 19.62 10.595C19.53 10.785 19.3 11.575 19.34 11.755C19.49 12.325 20.6 11.425 20.72 11.545H20.73Z" fill="black"/>
<path d="M15.08 11.515C15 11.035 13.86 12.315 13.6 11.935C13.6 11.185 13.33 10.345 13.56 9.625C13.54 9.535 13.41 9.495 13.34 9.435C13.3 9.405 13.26 9.275 13.22 9.265L13.03 9.455L13.15 11.995C13.2 12.415 13.63 12.645 14.03 12.545C14.26 12.495 15.12 11.795 15.08 11.515ZM13.23 10.215H13.28C13.35 10.785 13.42 11.355 13.49 11.945C13.38 11.835 13.2 10.585 13.23 10.225V10.215Z" fill="black"/>
<path d="M22.7 11.955C22.65 11.565 22.61 11.095 22.57 10.695C22.52 10.245 22.66 9.885 22.38 9.465C22.34 9.435 21.96 9.555 22 9.685L22.26 12.405L22.38 12.665L22.82 12.695C22.92 12.415 22.72 12.145 22.7 11.965V11.955ZM22.13 10.075C22.16 10.165 22.18 10.255 22.22 10.375C22.15 10.345 22.12 10.245 22.13 10.075ZM22.47 11.735C22.44 11.535 22.41 11.345 22.4 11.145C22.49 11.455 22.54 11.765 22.53 12.085C22.51 11.965 22.49 11.855 22.47 11.735ZM22.58 12.535C22.57 12.395 22.55 12.255 22.54 12.115C22.57 12.255 22.6 12.395 22.63 12.525H22.58V12.535Z" fill="black"/>
<defs>
<linearGradient id="paint0_linear_189_2" x1="25.59" y1="2.275" x2="6.28999" y2="29.725" gradientUnits="userSpaceOnUse">
<stop stop-color="#FDFAF1"/>
<stop offset="1" stop-color="#A29885"/>
</linearGradient>
<linearGradient id="paint1_linear_189_2" x1="25.53" y1="2.355" x2="6.36997" y2="29.605" gradientUnits="userSpaceOnUse">
<stop stop-color="#F8F3EB"/>
<stop offset="1" stop-color="#EDE2D5"/>
</linearGradient>
<linearGradient id="paint2_linear_189_2" x1="20.78" y1="28.945" x2="23.31" y2="28.945" gradientUnits="userSpaceOnUse">
<stop stop-color="#F8F3EB"/>
<stop offset="1" stop-color="#EDE2D5"/>
</linearGradient>
<linearGradient id="paint3_linear_189_2" x1="8.66" y1="28.945" x2="10.03" y2="28.945" gradientUnits="userSpaceOnUse">
<stop stop-color="#F8F3EB"/>
<stop offset="1" stop-color="#EDE2D5"/>
</linearGradient>
<linearGradient id="paint4_linear_189_2" x1="14.06" y1="28.945" x2="15.21" y2="28.945" gradientUnits="userSpaceOnUse">
<stop stop-color="#F8F3EB"/>
<stop offset="1" stop-color="#EDE2D5"/>
</linearGradient>
<linearGradient id="paint5_linear_189_2" x1="13.66" y1="28.945" x2="14.81" y2="28.945" gradientUnits="userSpaceOnUse">
<stop stop-color="#F8F3EB"/>
<stop offset="1" stop-color="#EDE2D5"/>
</linearGradient>
<linearGradient id="paint6_linear_189_2" x1="12.27" y1="28.945" x2="13.43" y2="28.945" gradientUnits="userSpaceOnUse">
<stop stop-color="#F8F3EB"/>
<stop offset="1" stop-color="#EDE2D5"/>
</linearGradient>
<linearGradient id="paint7_linear_189_2" x1="24.2" y1="28.935" x2="25.97" y2="28.935" gradientUnits="userSpaceOnUse">
<stop stop-color="#F8F3EB"/>
<stop offset="1" stop-color="#EDE2D5"/>
</linearGradient>
<linearGradient id="paint8_linear_189_2" x1="6.13" y1="28.895" x2="8.18" y2="28.895" gradientUnits="userSpaceOnUse">
<stop stop-color="#F8F3EB"/>
<stop offset="1" stop-color="#EDE2D5"/>
</linearGradient>
<linearGradient id="paint9_linear_189_2" x1="17.98" y1="28.945" x2="20.51" y2="28.945" gradientUnits="userSpaceOnUse">
<stop stop-color="#F8F3EB"/>
<stop offset="1" stop-color="#EDE2D5"/>
</linearGradient>
<linearGradient id="paint10_linear_189_2" x1="14.94" y1="28.945" x2="18.57" y2="28.945" gradientUnits="userSpaceOnUse">
<stop stop-color="#F8F3EB"/>
<stop offset="1" stop-color="#EDE2D5"/>
</linearGradient>
<linearGradient id="paint11_linear_189_2" x1="14.86" y1="5.845" x2="16.56" y2="3.055" gradientUnits="userSpaceOnUse">
<stop stop-color="#FDFAF1"/>
<stop offset="1" stop-color="#A29885"/>
</linearGradient>
<linearGradient id="paint12_linear_189_2" x1="36.1806" y1="21.3744" x2="35.0365" y2="13.7372" gradientUnits="userSpaceOnUse">
<stop stop-color="#FFFBEC" stop-opacity="0.3"/>
<stop offset="1" stop-color="#FFEDD0" stop-opacity="0"/>
</linearGradient>
<linearGradient id="paint13_linear_189_2" x1="8.59" y1="23.535" x2="12.96" y2="23.535" gradientUnits="userSpaceOnUse">
<stop stop-color="#F8F3EB"/>
<stop offset="1" stop-color="#EDE2D5"/>
</linearGradient>
<linearGradient id="paint14_linear_189_2" x1="13.94" y1="23.525" x2="18.59" y2="23.525" gradientUnits="userSpaceOnUse">
<stop stop-color="#F8F3EB"/>
<stop offset="1" stop-color="#EDE2D5"/>
</linearGradient>
<linearGradient id="paint15_linear_189_2" x1="19.51" y1="23.525" x2="23.58" y2="23.525" gradientUnits="userSpaceOnUse">
<stop stop-color="#F8F3EB"/>
<stop offset="1" stop-color="#EDE2D5"/>
</linearGradient>
<linearGradient id="paint16_linear_189_2" x1="8.54999" y1="19.005" x2="9.26999" y2="19.005" gradientUnits="userSpaceOnUse">
<stop stop-color="#F8F3EB"/>
<stop offset="1" stop-color="#EDE2D5"/>
</linearGradient>
<linearGradient id="paint17_linear_189_2" x1="10.28" y1="18.995" x2="10.98" y2="18.995" gradientUnits="userSpaceOnUse">
<stop stop-color="#F8F3EB"/>
<stop offset="1" stop-color="#EDE2D5"/>
</linearGradient>
<linearGradient id="paint18_linear_189_2" x1="12.01" y1="18.995" x2="12.72" y2="18.995" gradientUnits="userSpaceOnUse">
<stop stop-color="#F8F3EB"/>
<stop offset="1" stop-color="#EDE2D5"/>
</linearGradient>
<linearGradient id="paint19_linear_189_2" x1="13.75" y1="18.995" x2="14.46" y2="18.995" gradientUnits="userSpaceOnUse">
<stop stop-color="#F8F3EB"/>
<stop offset="1" stop-color="#EDE2D5"/>
</linearGradient>
<linearGradient id="paint20_linear_189_2" x1="15.48" y1="18.995" x2="16.19" y2="18.995" gradientUnits="userSpaceOnUse">
<stop stop-color="#F8F3EB"/>
<stop offset="1" stop-color="#EDE2D5"/>
</linearGradient>
<linearGradient id="paint21_linear_189_2" x1="17.22" y1="18.995" x2="17.92" y2="18.995" gradientUnits="userSpaceOnUse">
<stop stop-color="#F8F3EB"/>
<stop offset="1" stop-color="#EDE2D5"/>
</linearGradient>
<linearGradient id="paint22_linear_189_2" x1="18.96" y1="18.985" x2="19.66" y2="18.985" gradientUnits="userSpaceOnUse">
<stop stop-color="#F8F3EB"/>
<stop offset="1" stop-color="#EDE2D5"/>
</linearGradient>
<linearGradient id="paint23_linear_189_2" x1="20.67" y1="18.985" x2="21.42" y2="18.985" gradientUnits="userSpaceOnUse">
<stop stop-color="#F8F3EB"/>
<stop offset="1" stop-color="#EDE2D5"/>
</linearGradient>
<linearGradient id="paint24_linear_189_2" x1="22.39" y1="18.995" x2="23.17" y2="18.995" gradientUnits="userSpaceOnUse">
<stop stop-color="#F8F3EB"/>
<stop offset="1" stop-color="#EDE2D5"/>
</linearGradient>
</defs>
</svg>
